<?xml version="1.0" encoding="utf-8"?>
<!DOCTYPE svg PUBLIC "-//W3C//DTD SVG 1.0//EN" "http://www.w3.org/TR/2001/REC-SVG-20010904/DTD/svg10.dtd">
<svg version="1.0" xmlns="http://www.w3.org/2000/svg" width="528px" height="529px" viewBox="0 0 528 529" preserveAspectRatio="xMidYMid meet">
 <g fill="#002a26">
  <path d="M0 264.44 l0 -264.44 264 0 264 0 0 264.44 0 264.44 -264 0 -264 0 0 -264.44z m92.71 134.39 c4.39 -1.33 6.82 -2.83 10.19 -6.29 3.46 -3.59 5.45 -6.91 6.64 -11.16 2.30 -8.11 2.26 -7.66 2.17 -25.03 -0.04 -8.99 0.09 -16.61 0.27 -16.83 0.18 -0.27 1.51 -0.93 2.97 -1.46 7.88 -3.01 12.49 -5.89 18.03 -11.21 7.75 -7.53 12.62 -16.52 14.31 -26.36 1.37 -7.93 0.35 -15.37 -3.14 -22.99 -4.21 -9.21 -13.42 -17.67 -22.32 -20.51 -8.73 -2.75 -14.04 -2.75 -22.59 0 -11.61 3.77 -21.04 14.84 -21.97 25.82 -0.27 3.10 -0.27 3.14 1.11 4.56 1.82 1.77 3.14 2.13 4.87 1.24 1.95 -1.02 2.70 -2.39 3.37 -6.33 0.35 -1.90 0.84 -4.03 1.06 -4.70 0.58 -1.55 2.88 -4.96 4.43 -6.64 1.77 -1.95 7 -4.78 10.41 -5.71 5.05 -1.33 14.79 -0.93 18.21 0.71 0.75 0.35 2.30 1.11 3.46 1.59 4.74 2.17 10.01 8.42 12.27 14.48 1.33 3.59 1.46 4.39 1.64 10.54 0.27 8.37 -0.40 12.05 -3.23 17.54 -4.12 8.02 -9.48 13.42 -16.92 17.19 -3.41 1.73 -6.07 1.86 -6.42 0.40 -0.13 -0.58 -0.27 -6.11 -0.27 -12.31 -0.04 -14.22 -0.49 -26.13 -1.02 -27.15 -0.22 -0.44 -1.20 -1.37 -2.21 -2.08 -1.68 -1.20 -1.86 -1.24 -3.01 -0.66 -0.66 0.35 -1.77 1.28 -2.44 2.08 l-1.24 1.46 0.27 21.08 c0.13 11.56 0.09 21.31 -0.13 21.66 -0.49 0.75 -11.92 0.80 -15.95 0.04 -3.72 -0.71 -9.35 -2.48 -11.92 -3.81 -4.52 -2.26 -10.06 -7.13 -13.38 -11.74 -2.17 -2.92 -4.30 -8.02 -5.71 -13.51 -0.35 -1.24 -0.66 -5.58 -0.75 -9.74 -0.22 -8.77 0.49 -12.93 3.14 -19.40 6.33 -15.33 15.90 -28.39 34.99 -47.84 6.25 -6.38 6.47 -6.56 8.11 -6.42 l1.68 0.13 0.22 9.30 c0.27 9.88 0.49 10.99 2.48 12.58 2.61 2.04 6.11 0.27 6.87 -3.50 0.18 -1.11 0.35 -8.46 0.40 -16.39 l0 -14.35 2.75 -2.48 c12.27 -10.99 19.80 -21.53 23.52 -33.04 3.85 -11.92 3.68 -20.46 -0.62 -29.72 -3.19 -6.91 -9.74 -12.14 -16.03 -12.80 -2.52 -0.27 -3.28 -0.13 -6.11 0.93 -6.20 2.39 -9.74 7.49 -11.78 16.88 -1.11 5.23 -1.11 5.45 -1.33 31.27 l-0.22 26.05 -6.73 6.51 c-15.86 15.46 -26.80 27.46 -32.65 35.79 -11.47 16.30 -16.83 28.22 -18.16 40.22 -1.37 12.76 2.57 26.53 10.41 36.46 6.47 8.15 15.95 14.13 27.06 17.05 4.47 1.15 6.47 1.42 12.62 1.64 l7.31 0.31 0.35 2.66 c0.44 3.50 0.09 28.04 -0.49 31.45 -1.11 6.69 -4.74 12 -9.08 13.29 -8.02 2.39 -14.97 -1.73 -15.68 -9.21 -0.22 -2.57 -0.13 -3.06 0.97 -5.01 0.66 -1.20 1.99 -2.75 2.97 -3.50 3.68 -2.70 4.16 -4.61 1.90 -7.04 -1.68 -1.82 -3.14 -1.90 -5.89 -0.44 -3.06 1.64 -5.89 4.78 -7.71 8.55 -1.28 2.61 -1.46 3.32 -1.46 6.73 0 3.46 0.13 4.03 1.64 7.09 2.75 5.45 8.02 10.14 13.33 11.87 4.39 1.42 6.11 1.46 10.19 0.22z m61.84 -0.22 c4.65 -0.75 8.37 -1.77 9.48 -2.57 0.53 -0.44 2.21 -1.51 3.68 -2.39 3.54 -2.13 14.09 -12.49 14.93 -14.62 0.27 -0.71 9.17 -0.75 147.90 -0.80 113.17 0 147.99 -0.13 149.19 -0.53 1.95 -0.66 3.72 -3.19 3.32 -4.74 -0.71 -3.06 -0.75 -4.92 -0.04 -6.91 0.66 -1.90 0.71 -9.83 0.71 -86.60 0 -76.54 -0.09 -84.60 -0.71 -86.15 -0.71 -1.64 -0.66 -2.70 0.09 -6.73 0.27 -1.24 0.04 -1.64 -1.51 -3.19 l-1.77 -1.77 -52.76 0 c-46.60 0 -52.76 0.09 -52.76 0.66 0 0.44 -0.49 0.66 -1.55 0.66 -1.46 0 -1.55 -0.09 -1.55 -1.55 0 -0.84 0.22 -1.55 0.44 -1.55 0.27 0 0.44 -0.40 0.44 -0.84 0 -0.49 0.13 -0.93 0.35 -1.02 0.18 -0.04 1.06 -2.08 1.99 -4.43 0.93 -2.39 2.08 -4.78 2.48 -5.32 0.44 -0.58 1.77 -2.83 2.92 -5.05 1.15 -2.21 2.48 -4.52 3.01 -5.18 0.53 -0.62 1.33 -1.55 1.77 -2.04 0.40 -0.53 0.75 -1.15 0.75 -1.42 0 -0.27 1.68 -2.08 3.77 -4.08 2.79 -2.70 4.74 -4.12 7.62 -5.63 5.49 -2.79 6.47 -3.10 11.12 -3.41 l4.08 -0.27 0 1.59 c0 1.24 -0.49 2.26 -2.08 4.39 -1.15 1.55 -2.26 2.88 -2.48 2.92 -0.49 0.22 -2.97 5.23 -2.97 6.02 0 0.35 -0.22 0.71 -0.44 0.80 -0.27 0.09 -0.58 2.04 -0.75 4.39 -0.22 3.99 -0.18 4.43 0.89 6.64 1.46 3.06 1.90 3.59 4.12 4.56 5.67 2.48 11.34 1.15 15.86 -3.81 3.01 -3.23 4.34 -5.67 5.58 -10.14 1.06 -3.94 1.15 -7.62 0.18 -10.94 -0.80 -2.66 -2.57 -5.85 -3.28 -5.85 -0.22 0 -1.02 -0.58 -1.82 -1.28 -1.51 -1.37 -5.45 -2.70 -8.02 -2.70 -0.89 0 -1.90 -0.31 -2.30 -0.66 -0.84 -0.84 -3.81 -0.89 -3.81 -0.04 0 0.40 -0.89 0.66 -2.75 0.89 -3.77 0.35 -8.24 1.77 -9.30 2.88 -0.44 0.53 -1.33 1.06 -1.99 1.20 -2.97 0.75 -11.25 8.11 -14.44 12.80 -0.97 1.46 -2.04 2.88 -2.35 3.10 -0.31 0.27 -1.28 1.86 -2.21 3.54 -0.89 1.73 -2.04 3.50 -2.48 4.03 -0.44 0.49 -1.73 3.01 -2.83 5.54 -1.15 2.52 -2.21 4.70 -2.44 4.83 -0.44 0.31 -2.39 4.65 -2.79 6.33 -0.22 1.02 -0.53 1.20 -1.82 1.20 -1.24 0 -1.55 -0.18 -1.55 -0.89 0 -0.89 -0.31 -0.89 -43.41 -0.89 -38.27 0 -43.41 0.09 -43.41 0.66 0 0.44 -0.49 0.66 -1.55 0.66 -1.33 0 -1.55 -0.18 -1.82 -1.20 -0.13 -0.71 -0.40 -1.64 -0.62 -2.13 -0.18 -0.49 -0.84 -2.39 -1.46 -4.21 -0.62 -1.82 -1.77 -5.09 -2.52 -7.31 -0.80 -2.17 -1.82 -5.36 -2.26 -7 -0.49 -1.64 -1.24 -3.85 -1.68 -4.87 -0.49 -1.02 -0.97 -2.52 -1.15 -3.28 l-0.31 -1.46 -3.01 0 c-2.04 0 -3.10 0.18 -3.23 0.58 -0.22 0.75 -41.59 0.75 -41.86 -0.04 -0.09 -0.31 -0.93 -0.53 -1.86 -0.53 -1.82 0 -1.86 0.09 -2.44 2.92 l-0.27 1.33 5.94 0.49 c3.32 0.27 6.64 0.80 7.57 1.20 0.93 0.40 2.26 0.71 2.92 0.71 2.17 0 4.83 2.17 6.25 5.05 1.20 2.39 1.28 3.06 1.28 7.44 0 2.66 -0.22 5.23 -0.44 5.71 -0.27 0.44 -0.58 2.13 -0.75 3.72 l-0.27 2.88 -1.46 0 c-1.06 0 -1.51 -0.22 -1.51 -0.66 0 -0.58 -4.12 -0.66 -34.42 -0.66 -33.62 0 -34.51 0.04 -35.92 0.89 -1.77 1.11 -3.14 3.28 -2.83 4.56 0.31 1.28 1.68 2.79 3.10 3.37 0.80 0.31 12 0.53 34.77 0.58 31.67 0.13 33.53 0.09 33.53 -0.62 0 -0.62 0.35 -0.80 1.55 -0.80 1.37 0 1.55 0.13 1.55 1.15 0 1.73 -1.77 10.10 -2.26 10.59 -0.22 0.22 -0.40 0.84 -0.40 1.42 0 0.53 -0.18 1.86 -0.44 2.88 -0.44 2.08 -0.89 4.56 -1.99 10.99 -1.06 6.29 -1.64 8.86 -2.04 8.86 -0.18 0 -0.49 0.89 -0.66 1.99 -0.27 1.90 -0.35 1.99 -1.77 1.99 -0.84 0 -1.51 -0.18 -1.51 -0.44 0 -0.31 -13.11 -0.44 -38.40 -0.44 -37.34 0 -38.49 0.04 -39.87 0.89 -0.80 0.44 -1.73 1.46 -2.13 2.21 -0.66 1.28 -0.66 1.46 0.09 2.79 0.49 0.80 1.51 1.86 2.35 2.39 l1.46 1.02 37.56 0 c24.54 0 37.65 0.13 37.83 0.44 0.13 0.27 0.66 0.44 1.20 0.44 0.84 0 0.89 0.18 0.62 2.61 -0.18 1.46 -0.80 4.61 -1.42 7 -1.59 6.16 -1.73 6.69 -3.19 14.09 -1.82 9.04 -2.75 12.62 -3.37 12.67 -0.27 0 -8.86 0.04 -19.14 0.09 l-18.65 0.09 -1.64 1.28 c-2.35 1.77 -2.83 3.06 -1.86 4.87 0.44 0.80 1.55 1.90 2.52 2.48 1.73 0.97 1.90 0.97 17.94 0.84 19.18 -0.18 18.16 -0.40 17.76 4.43 -0.13 1.59 -0.84 4.74 -1.55 6.91 -1.28 4.08 -1.90 6.42 -3.85 15.19 -0.58 2.79 -1.37 5.67 -1.73 6.42 -0.35 0.80 -0.80 2.04 -1.02 2.75 l-0.44 1.33 -18.56 0.22 c-19.76 0.22 -19.62 0.22 -21.39 2.48 -1.20 1.51 -1.20 2.83 0 4.34 1.90 2.39 2.17 2.44 18.60 2.48 13.55 0.04 15.24 0 15.37 -0.62 0.09 -0.49 0.66 -0.71 1.68 -0.71 1.46 0 1.51 0.04 1.51 1.90 0 1.06 -0.18 2.08 -0.35 2.35 -0.53 0.62 -2.13 5.01 -2.75 7.49 -1.11 4.52 -2.70 9.08 -4.03 11.47 -0.27 0.44 -1.15 2.88 -1.95 5.32 -1.28 4.08 -2.21 6.33 -2.92 6.91 -0.13 0.13 -0.62 1.06 -1.11 2.13 l-0.84 1.90 -1.99 -0.35 c-1.11 -0.18 -6.87 -0.35 -12.80 -0.35 -10.28 -0.04 -10.81 -0.09 -11.30 -0.93 -1.82 -3.19 -4.74 -5.05 -8.15 -5.14 -2.88 -0.09 -6.87 0.80 -8.50 1.82 -2.66 1.68 -5.63 5.63 -7.62 10.01 -1.11 2.44 -2.13 5.14 -2.30 6.02 -0.40 2.21 0.40 7.31 1.55 9.92 1.82 4.08 6.73 7.75 10.45 7.75 0.58 0 1.02 0.22 1.02 0.44 0 0.58 5.54 0.58 9.26 -0.04z"/>
  <path d="M111.93 191.49 c-0.18 -0.13 -0.31 -9.08 -0.31 -19.89 0 -21 0.22 -23.52 2.30 -28.70 1.24 -3.10 2.61 -4.25 5.36 -4.56 3.72 -0.44 6.47 1.11 8.86 4.87 2.35 3.72 2.75 5.85 2.75 14.04 -0.04 6.69 -0.13 7.66 -1.24 11.21 -2.26 7.26 -6.29 14.44 -11.52 20.38 -2.35 2.66 -2.79 2.97 -4.25 2.97 -0.93 0 -1.82 -0.13 -1.95 -0.31z"/>
  <path d="M153.17 394.05 c-1.51 -1.11 -0.97 -2.97 2.35 -8.02 1.73 -2.61 3.37 -5.45 3.59 -6.29 l0.40 -1.46 8.15 0 c5.18 0 8.19 -0.18 8.19 -0.44 0 -0.22 0.71 -0.44 1.55 -0.44 1.42 0 1.55 0.09 1.55 1.28 0 1.73 -0.40 2.70 -1.11 2.70 -0.31 0 -0.66 0.49 -0.84 1.02 -0.35 1.42 -6.69 7.44 -8.90 8.46 -0.97 0.44 -2.57 1.20 -3.59 1.64 -0.97 0.44 -2.52 0.84 -3.41 0.84 -1.15 0 -1.64 0.18 -1.64 0.66 0 0.89 -5.18 0.93 -6.29 0.04z"/>
  <path d="M308.30 369.69 c0 -0.35 -0.31 -0.75 -0.71 -0.89 -0.40 -0.13 -26.80 -0.27 -58.69 -0.27 l-57.98 0 0 -1.55 c0 -1.77 1.86 -7.44 3.85 -11.74 0.75 -1.59 1.55 -3.59 1.82 -4.43 0.27 -0.84 1.02 -3.32 1.68 -5.54 0.66 -2.17 1.33 -4.16 1.51 -4.43 0.40 -0.53 3.10 -8.59 3.10 -9.26 0 -0.35 13.91 -0.49 47.62 -0.49 26.18 0 47.62 0.13 47.62 0.31 0 0.18 0.58 1.59 1.33 3.14 0.71 1.59 1.55 3.94 1.82 5.23 0.27 1.33 0.66 2.48 0.84 2.61 0.13 0.13 0.58 1.24 0.89 2.44 0.31 1.24 1.06 3.23 1.64 4.43 0.93 1.99 4.30 12.18 4.87 14.75 0.13 0.53 0.40 1.11 0.62 1.24 0.22 0.13 0.40 0.62 0.40 1.11 0 0.44 0.22 0.84 0.44 0.84 0.27 0 0.44 0.71 0.44 1.55 0 1.46 -0.09 1.55 -1.55 1.55 -1.02 0 -1.55 -0.22 -1.55 -0.62z"/>
  <path d="M321.14 367.43 c0 -0.71 0.40 -3.23 0.89 -5.54 0.49 -2.30 1.02 -5.01 1.20 -5.98 0.13 -0.97 0.40 -1.95 0.58 -2.21 0.40 -0.49 1.99 -7.75 3.54 -16.17 0.62 -3.32 1.24 -5.23 1.68 -5.63 0.62 -0.44 10.28 -0.53 45.80 -0.58 26.93 0 45.49 0.18 46.11 0.40 l1.11 0.44 0.18 17.85 c0.09 9.83 0.04 18.03 -0.09 18.21 -0.18 0.18 -22.94 0.40 -50.63 0.44 l-50.36 0.09 0 -1.33z"/>
  <path d="M432.28 368.36 c-0.44 -0.49 -0.58 -35.17 -0.13 -36.32 0.22 -0.62 2.39 -0.71 19.89 -0.71 11.34 0 20.11 0.18 20.77 0.40 l1.11 0.44 0.13 17.85 c0.09 9.83 0.04 17.98 -0.09 18.16 -0.35 0.49 -41.19 0.62 -41.68 0.18z"/>
  <path d="M320.92 320.17 c-0.44 -1.55 -1.51 -4.47 -2.30 -6.51 -0.84 -2.04 -2.17 -5.89 -2.97 -8.64 -0.84 -2.70 -2.04 -6.29 -2.70 -8.02 -1.99 -5.23 -2.88 -8.33 -2.88 -10.28 l0 -1.90 9.43 0 c5.23 0 11.03 -0.13 12.93 -0.31 l3.46 -0.27 -0.31 2.61 c-0.31 2.92 -2.52 13.24 -3.59 17.01 -0.40 1.33 -1.24 4.92 -1.90 7.97 -0.66 3.06 -1.33 5.63 -1.51 5.67 -0.22 0.09 -0.35 1.15 -0.35 2.35 l0 2.17 -1.77 0 c-0.97 0 -1.77 0.22 -1.77 0.44 0 0.27 -0.66 0.44 -1.46 0.44 -1.37 0 -1.46 -0.13 -2.30 -2.75z"/>
  <path d="M206.86 319.72 c0 -1.28 0.44 -3.94 0.93 -5.89 0.53 -1.95 1.02 -4.12 1.15 -4.87 0.27 -1.99 1.06 -5.18 1.51 -6.20 0.58 -1.42 2.57 -9.83 3.99 -16.92 0.53 -2.75 0.53 -2.79 1.99 -2.79 1.20 0 1.51 0.18 1.51 0.89 0 0.89 0.31 0.89 30.12 0.89 29.81 0 30.12 0 30.12 -0.89 0 -0.71 0.31 -0.89 1.46 -0.89 1.42 0 1.51 0.13 2.26 2.57 0.44 1.37 1.15 3.19 1.64 3.99 0.44 0.80 0.84 1.95 0.84 2.57 0 0.58 0.22 1.06 0.44 1.06 0.27 0 0.44 0.49 0.44 1.11 0 1.15 1.55 5.54 3.37 9.43 0.58 1.28 1.06 2.70 1.06 3.19 0 0.44 0.22 0.97 0.44 1.11 0.27 0.13 0.44 0.66 0.44 1.11 0 0.49 0.27 1.51 0.62 2.30 1.99 4.65 2.66 9.74 1.33 10.28 -0.40 0.13 -19.80 0.27 -43.19 0.27 l-42.48 0 0 -2.30z"/>
  <path d="M332.35 321.72 c-0.31 -0.09 -0.58 -0.93 -0.58 -1.82 0 -1.77 2.21 -12.58 2.66 -12.93 0.31 -0.27 1.77 -6.42 3.10 -13.07 0.49 -2.44 1.15 -5.45 1.42 -6.73 l0.49 -2.30 40.35 -0.13 c22.19 -0.09 40.80 0 41.37 0.18 l0.97 0.35 -0.09 18.25 -0.13 18.29 -44.52 0.09 c-24.50 0.04 -44.78 -0.04 -45.05 -0.18z"/>
  <path d="M432.14 321.32 c-0.44 -1.11 -0.31 -35.35 0.13 -36.01 0.35 -0.53 3.50 -0.62 20.73 -0.53 14.88 0.09 20.38 0.27 20.60 0.62 0.18 0.31 0.31 8.59 0.22 18.47 l-0.09 17.94 -20.64 0.13 c-18.56 0.09 -20.69 0.04 -20.95 -0.62z"/>
  <path d="M305.37 275.21 c-0.13 -0.71 -0.84 -2.92 -1.59 -5.01 -0.71 -2.08 -2.21 -6.56 -3.32 -9.97 -1.11 -3.41 -2.83 -8.28 -3.81 -10.85 -1.82 -4.87 -2.88 -9.52 -2.39 -10.76 0.27 -0.71 2.39 -0.75 26.67 -0.75 l26.36 0 0 1.90 c0 2.17 -3.01 15.77 -4.34 19.62 -0.93 2.66 -1.42 4.52 -3.19 12.49 l-1.06 4.52 -1.46 0 c-1.02 0 -1.46 -0.22 -1.46 -0.66 0 -0.58 -1.82 -0.66 -13.51 -0.66 -11.69 0 -13.51 0.09 -13.51 0.66 0 0.44 -0.49 0.66 -1.55 0.66 -1.33 0 -1.55 -0.18 -1.82 -1.20z"/>
  <path d="M218.38 272.28 c0 -1.51 0.18 -3.46 0.44 -4.30 0.22 -0.84 0.75 -3.41 1.15 -5.71 0.40 -2.30 0.89 -4.52 1.06 -4.87 0.62 -1.24 3.63 -14.93 4.25 -19.18 0.27 -2.08 0.31 -2.13 1.77 -2.13 1.20 0 1.51 0.18 1.51 0.89 0 0.89 0.31 0.89 16.61 0.89 14.48 0 16.61 -0.09 16.61 -0.66 0 -0.44 0.44 -0.66 1.46 -0.66 1.59 0 1.46 -0.35 7.04 15.95 1.46 4.25 2.83 7.93 3.06 8.15 0.22 0.27 0.40 0.84 0.40 1.37 0 0.53 0.18 1.11 0.40 1.37 0.66 0.75 2.30 6.56 2.57 9.17 l0.27 2.52 -29.32 0 -29.28 0 0 -2.79z"/>
  <path d="M343.33 274.68 c-0.71 -0.44 -0.40 -4.08 0.66 -7.53 0.31 -1.11 0.62 -2.48 0.62 -3.01 0 -0.58 0.18 -1.02 0.40 -1.02 0.22 0 0.49 -0.44 0.62 -0.97 0.13 -0.58 0.62 -2.61 1.11 -4.56 0.49 -1.95 1.46 -5.94 2.13 -8.86 0.66 -2.92 1.37 -5.40 1.51 -5.54 0.13 -0.13 0.62 -1.37 1.11 -2.75 l0.84 -2.57 34.20 0 c18.83 0 34.51 0.13 34.90 0.27 0.62 0.22 0.71 2.26 0.71 18.34 0 16.08 -0.09 18.12 -0.71 18.34 -1.11 0.44 -77.38 0.31 -78.09 -0.13z"/>
  <path d="M432.46 274.76 c-0.89 -0.31 -0.84 -35.70 0.04 -36.41 0.40 -0.35 6.29 -0.44 20.91 -0.40 l20.33 0.13 0 18.38 0 18.38 -20.38 0.09 c-11.21 0.04 -20.64 -0.04 -20.91 -0.18z"/>
  <path d="M289.47 228.48 c-0.13 -0.80 -0.44 -1.86 -0.66 -2.35 -0.22 -0.49 -0.71 -1.99 -1.15 -3.32 -0.40 -1.33 -1.20 -3.50 -1.77 -4.78 -0.58 -1.28 -1.06 -2.92 -1.06 -3.59 0 -0.71 -0.18 -1.37 -0.40 -1.46 -0.22 -0.04 -0.93 -1.90 -1.59 -4.12 -0.66 -2.17 -1.55 -4.78 -2.04 -5.76 -1.11 -2.44 -2.17 -5.94 -2.17 -7.40 0 -0.71 -0.22 -1.24 -0.49 -1.24 -0.27 0 -0.40 -0.71 -0.31 -1.64 l0.13 -1.68 36.10 -0.13 c19.84 -0.09 38.76 0 41.99 0.18 l5.94 0.27 -0.22 2.30 c-0.22 2.88 -1.33 6.73 -2.83 9.88 -0.62 1.37 -1.73 4.61 -2.44 7.18 -0.71 2.57 -1.64 6.02 -2.08 7.71 -0.44 1.64 -1.06 3.23 -1.33 3.54 -0.27 0.31 -0.66 1.59 -0.93 2.79 -0.27 1.20 -0.66 2.48 -0.89 2.83 -0.35 0.58 -4.21 0.66 -29.46 0.80 -25.25 0.09 -29.01 0.18 -29.01 0.75 0 0.44 -0.49 0.66 -1.51 0.66 -1.37 0 -1.55 -0.13 -1.82 -1.42z"/>
  <path d="M354.94 227.81 c0.13 -1.20 0.66 -3.10 1.20 -4.25 0.53 -1.20 1.73 -5.05 2.70 -8.59 0.97 -3.59 1.90 -6.69 2.13 -6.95 0.44 -0.62 1.86 -4.65 3.59 -10.23 0.75 -2.44 1.64 -4.65 1.95 -4.96 0.35 -0.31 0.71 -0.80 0.80 -1.11 0.27 -0.80 53.29 -1.11 54.22 -0.31 0.53 0.40 0.62 3.77 0.62 18.56 l0 18.03 -1.64 0.31 c-0.93 0.13 -15.37 0.27 -32.11 0.27 -26.80 0 -30.48 0.09 -30.48 0.66 0 0.49 -0.49 0.66 -1.59 0.66 l-1.64 0 0.27 -2.08z"/>
  <path d="M228.25 226.48 c0.27 -2.66 3.28 -19.45 3.54 -19.93 0.13 -0.22 0.75 -2.75 1.37 -5.67 0.66 -2.92 1.37 -6.16 1.59 -7.18 0.27 -1.02 0.44 -2.48 0.44 -3.19 0 -1.28 0.13 -1.37 1.55 -1.37 1.24 0 1.55 0.18 1.55 0.89 0 0.75 0.31 0.89 2.17 0.89 1.20 0 2.79 0.13 3.54 0.27 1.06 0.22 1.37 0.13 1.37 -0.44 0 -0.53 0.40 -0.71 1.55 -0.71 1.33 0 1.55 0.13 1.55 1.02 0 0.58 0.18 1.20 0.35 1.42 0.18 0.27 0.62 1.24 0.93 2.21 0.31 0.97 1.06 2.79 1.59 3.99 0.53 1.24 1.33 3.41 1.77 4.87 1.42 4.78 2.97 9.21 3.99 11.52 2.52 5.76 3.99 12.40 2.83 13.11 -0.35 0.22 -7.66 0.40 -16.26 0.40 l-15.68 0 0.22 -2.08z"/>
  <path d="M432.41 228.03 c-0.75 -0.75 -0.75 -35.83 0 -36.59 0.84 -0.84 40.35 -0.75 41.06 0.09 0.35 0.40 0.44 5.71 0.40 18.69 l-0.13 18.12 -20.38 0.13 c-15.50 0.09 -20.55 -0.04 -20.95 -0.44z"/>
  <path d="M238 180.95 c-0.66 -0.75 -0.75 -4.21 -0.13 -4.21 0.27 0 0.44 -0.66 0.44 -1.51 0 -1.59 0.53 -2.04 2.61 -2.04 0.84 0 1.37 0.31 1.68 1.02 0.89 1.95 1.46 4.16 1.46 5.76 l0 1.64 -2.75 0 c-1.86 -0.04 -2.97 -0.27 -3.32 -0.66z"/>
 </g>
 <g fill="#043f3b">
  <path d="M85.27 401.01 c-6.95 -0.93 -14 -6.20 -17.41 -12.93 -1.59 -3.28 -1.64 -3.41 -1.64 -8.42 0 -4.92 0.09 -5.27 1.42 -8.06 1.95 -3.99 4.74 -7 8.11 -8.73 3.19 -1.64 3.99 -1.68 6.47 -0.58 2.08 0.97 3.28 3.01 3.28 5.76 0 1.95 -1.64 4.25 -4.03 5.67 -0.66 0.40 -1.77 1.68 -2.39 2.88 -0.93 1.68 -1.11 2.44 -0.84 3.77 0.62 3.50 3.90 7.09 7.44 8.11 1.68 0.44 2.57 0.49 4.61 0 2.17 -0.44 2.88 -0.89 5.01 -3.06 2.75 -2.79 4.16 -5.80 4.92 -10.45 0.58 -3.46 0.93 -25.34 0.49 -28.79 l-0.35 -2.66 -7.31 -0.31 c-6.16 -0.22 -8.15 -0.49 -12.62 -1.64 -11.12 -2.92 -20.60 -8.90 -27.06 -17.05 -10.68 -13.51 -13.69 -33.09 -7.75 -50.90 2.97 -8.81 7.22 -16.70 15.50 -28.44 5.85 -8.33 16.79 -20.33 32.65 -35.79 l6.73 -6.51 0.22 -26.05 c0.22 -25.82 0.22 -26.05 1.33 -31.27 2.04 -9.39 5.58 -14.48 11.78 -16.88 2.97 -1.11 3.63 -1.20 7.35 -0.97 5.36 0.31 8.50 1.82 12.76 6.16 5.32 5.40 8.06 13.07 8.06 22.50 0 15.37 -6.73 30.08 -20.02 43.63 -1.90 1.95 -4.65 4.56 -6.11 5.80 l-2.66 2.30 -0.22 15.95 c-0.22 15.37 -0.27 16.03 -1.15 17.23 -1.55 2.08 -3.46 2.92 -5.71 2.57 -2.48 -0.35 -4.34 -1.86 -5.01 -4.12 -0.31 -1.06 -0.53 -5.01 -0.53 -10.19 0 -5.36 -0.18 -8.55 -0.44 -8.73 -0.49 -0.31 -10.76 9.92 -16.74 16.66 -13.24 14.84 -19.93 24.81 -25.16 37.47 -2.57 6.20 -3.37 10.76 -3.14 18.07 0.22 7.49 1.33 12.27 4.25 18.16 2.83 5.80 9.48 12.40 15.59 15.50 2.61 1.33 8.24 3.14 11.92 3.81 3.72 0.66 12.85 0.66 13.29 -0.04 0.18 -0.27 0.22 -10.01 0.09 -21.62 l-0.22 -21.13 1.24 -1.46 c1.46 -1.77 3.28 -2.75 5.01 -2.75 1.37 0 4.65 2.08 5.36 3.50 0.27 0.44 0.58 6.11 0.71 13.16 0.49 23.17 0.58 26.80 0.84 27.11 0.35 0.31 4.61 -1.68 7.13 -3.37 5.67 -3.72 9.83 -8.50 13.24 -15.10 2.70 -5.27 3.54 -9.30 3.23 -16.21 -0.18 -4.56 -0.40 -5.85 -1.64 -9.21 -2.21 -6.07 -7.53 -12.31 -12.27 -14.48 -1.15 -0.49 -2.70 -1.24 -3.46 -1.59 -3.32 -1.59 -10.81 -1.95 -15.55 -0.71 -3.41 0.93 -8.64 3.77 -10.41 5.71 -3.19 3.46 -4.92 7 -5.45 11.16 -0.44 3.41 -1.33 5.18 -3.01 6.25 -2.88 1.73 -7.31 0.75 -8.77 -1.95 -0.84 -1.59 -0.31 -8.64 0.89 -11.74 2.48 -6.38 5.58 -10.76 10.10 -14.35 6.91 -5.54 14.44 -8.06 23.57 -8.06 10.01 0.04 18.74 3.59 25.96 10.54 5.49 5.23 8.68 10.50 11.12 18.25 2.21 7.04 1.77 19.31 -0.93 26.53 -2.88 7.62 -6.87 13.73 -12.58 19.27 -5.54 5.32 -10.14 8.19 -18.03 11.21 -1.46 0.53 -2.79 1.20 -2.97 1.46 -0.18 0.22 -0.27 7.80 -0.22 16.83 0.04 14.44 -0.04 16.74 -0.71 19.49 -2.57 10.01 -3.90 12.62 -8.90 17.36 -2.88 2.75 -4.25 3.72 -6.69 4.65 -4.65 1.86 -7.71 2.30 -11.52 1.82z m31.54 -213.50 c5.23 -5.94 9.30 -13.16 11.52 -20.38 1.02 -3.41 1.20 -4.70 1.20 -9.88 0.04 -6.78 -0.44 -9.12 -2.70 -12.71 -3.68 -5.80 -8.68 -6.42 -11.12 -1.37 -2.39 5.05 -2.48 5.80 -2.66 26.67 -0.09 10.68 -0.04 19.71 0.09 20.02 0.40 1.06 0.97 0.71 3.68 -2.35z"/>
  <path d="M143.96 399.99 c0 -0.22 -0.31 -0.44 -0.66 -0.44 -0.35 0 -0.66 -0.18 -0.66 -0.44 0 -0.27 1.42 -0.44 3.32 -0.44 3.01 0 3.32 0.09 3.32 0.89 0 0.80 -0.31 0.89 -2.66 0.89 -1.46 0 -2.66 -0.18 -2.66 -0.44z"/>
  <path d="M150.60 393.56 c0 -2.13 2.21 -4.65 4.12 -4.65 l1.28 0 -1.20 1.59 c-1.15 1.51 -1.15 1.59 -0.40 2.17 0.49 0.35 1.11 0.66 1.42 0.66 0.35 0 0.53 0.35 0.44 0.80 -0.13 0.62 -0.71 0.80 -2.92 0.89 l-2.75 0.13 0 -1.59z"/>
  <path d="M156.81 394.01 c0 -0.35 0.31 -0.66 0.66 -0.66 0.35 0 0.66 -0.31 0.66 -0.66 0 -0.49 0.53 -0.66 1.95 -0.66 1.11 0 2.13 -0.18 2.26 -0.44 0.53 -0.89 1.11 -0.44 1.11 0.84 0 1.20 -0.18 1.33 -2.21 1.77 -3.14 0.66 -4.43 0.62 -4.43 -0.18z"/>
  <path d="M175.32 381.87 c0.40 -0.71 0.58 -1.46 0.40 -1.68 -0.22 -0.18 -3.59 -0.40 -7.49 -0.49 -6.42 -0.13 -7.13 -0.09 -7.66 0.66 -1.02 1.37 -1.28 0.27 -0.75 -3.28 0.35 -2.52 0.35 -4.39 0 -6.91 -0.49 -3.28 -0.27 -4.70 0.49 -3.50 0.27 0.44 2.79 0.58 10.94 0.58 5.80 0 10.99 0.18 11.47 0.35 0.71 0.31 0.97 0.13 1.42 -0.89 0.71 -1.77 1.46 -1.59 1.46 0.27 0 0.84 -0.18 1.55 -0.44 1.55 -0.22 0 -0.44 0.35 -0.44 0.84 0 1.33 -1.28 4.03 -3.46 7.35 -1.11 1.73 -2.17 3.19 -2.35 3.32 -0.13 0.13 -0.62 0.89 -1.02 1.68 -0.58 1.11 -1.02 1.42 -2.04 1.42 l-1.28 0 0.75 -1.28z"/>
  <path d="M182.05 381.29 c0 -0.89 0.13 -1.68 0.35 -1.77 0.49 -0.22 3.81 -5.49 5.27 -8.37 3.06 -6.07 3.41 -6.60 4.25 -6.60 0.71 0 0.84 0.22 0.62 1.33 l-0.27 1.33 58.43 0.09 c32.16 0.09 58.47 0 58.47 -0.18 0 -0.18 -0.18 -0.44 -0.44 -0.58 -0.22 -0.13 -0.44 -0.66 -0.44 -1.15 0 -0.66 0.27 -0.89 0.97 -0.75 0.84 0.13 1.28 1.06 3.01 6.11 l2.08 5.98 2.21 0.13 c2.21 0.13 2.26 0.09 2.75 -1.33 0.22 -0.80 0.66 -2.61 0.89 -4.03 0.80 -4.34 1.37 -6.07 2.08 -6.07 0.49 0 0.58 0.31 0.35 1.24 -0.13 0.66 -0.09 1.02 0.13 0.75 0.22 -0.31 16.70 -0.35 48.55 -0.22 26.49 0.13 48.50 0.09 48.90 -0.04 0.62 -0.22 0.71 -1.95 0.62 -16.83 -0.04 -10.23 -0.27 -16.74 -0.53 -17.01 -0.31 -0.31 -15.99 -0.49 -44.96 -0.53 -38.85 -0.09 -44.56 -0.04 -44.74 0.53 -0.18 0.35 -0.49 0.53 -0.71 0.40 -0.31 -0.18 -0.35 0.35 -0.13 1.55 0.22 1.46 0.18 1.86 -0.44 2.08 -0.40 0.18 -0.66 0.62 -0.62 1.02 0.13 0.93 -0.49 2.26 -0.97 2.26 -0.22 0 -0.40 -0.49 -0.40 -1.11 0 -1.15 0.13 -1.82 2.61 -12.18 0.71 -3.06 1.42 -6.20 1.59 -6.95 0.31 -1.46 1.55 -2.08 1.55 -0.80 0 0.35 0.44 0.75 1.02 0.89 0.53 0.13 20.20 0.18 43.72 0.13 l42.74 -0.13 0.13 -16.79 c0.04 -9.26 -0.09 -17.01 -0.27 -17.19 -0.22 -0.22 -17.98 -0.35 -39.51 -0.35 l-39.11 0 -0.71 1.02 c-0.80 1.11 -1.46 3.50 -0.89 3.14 0.66 -0.40 0.44 0.62 -0.27 1.33 -0.40 0.35 -0.66 0.84 -0.62 1.02 0.13 0.62 -0.58 1.90 -1.02 1.90 -0.53 0 -0.04 -5.85 0.53 -6.20 0.18 -0.13 0.44 -0.93 0.53 -1.77 0.13 -0.84 0.58 -2.66 0.97 -3.99 0.40 -1.33 1.15 -4.47 1.64 -6.95 0.84 -3.94 1.11 -4.56 1.86 -4.56 0.66 0 0.80 0.22 0.66 1.06 -0.13 0.71 0 1.20 0.40 1.33 0.89 0.35 74.28 0.31 75.17 0 0.62 -0.22 0.71 -2.17 0.71 -17.01 0 -14.84 -0.09 -16.79 -0.71 -17.01 -0.40 -0.13 -15.50 -0.27 -33.62 -0.27 l-32.91 0 -0.31 1.33 c-0.40 1.73 -1.55 1.77 -1.55 0.04 0 -0.66 0.18 -1.82 0.40 -2.52 0.22 -0.71 0.84 -3.19 1.37 -5.49 0.53 -2.30 1.33 -5.05 1.82 -6.07 0.44 -1.06 0.84 -2.08 0.84 -2.35 0 -0.22 0.40 -0.44 0.89 -0.44 1.02 0 1.06 1.11 0.13 2.13 -0.31 0.31 -0.58 0.84 -0.58 1.11 0 0.40 0.09 0.40 0.35 0 0.22 -0.35 0.58 -0.40 0.97 -0.13 0.75 0.49 58.34 0.62 61.13 0.18 l1.77 -0.31 0 -16.70 c0 -13.69 -0.13 -16.83 -0.62 -17.23 -0.93 -0.75 -51.29 -0.49 -51.56 0.31 -0.09 0.31 -0.49 0.89 -0.89 1.28 -1.42 1.42 -1.11 -1.37 0.75 -6.82 2.39 -6.91 3.94 -9.88 5.23 -9.88 0.71 0 0.89 0.22 0.71 0.89 -0.13 0.49 -0.44 0.89 -0.66 0.89 -0.22 0 -0.27 0.18 -0.13 0.44 0.18 0.31 18.60 0.44 53.82 0.44 l53.55 0 1.55 1.33 c2.21 1.95 2.70 3.85 1.86 6.73 -0.58 1.99 -0.58 2.48 0 3.81 0.53 1.33 0.62 13.60 0.62 87.35 0 76.19 -0.09 86.02 -0.66 87.75 -0.62 1.77 -0.62 2.13 0 3.81 1.28 3.28 -0.53 7.22 -3.68 8.11 -1.11 0.31 -49.61 0.44 -149.05 0.44 -139.66 0 -147.41 0.04 -147.68 0.80 -0.18 0.40 -0.66 1.15 -1.11 1.59 -0.80 0.84 -0.80 0.84 -0.80 -0.71z m287.39 -14.22 l3.23 -0.09 -0.04 -16.61 c0 -10.72 -0.18 -16.74 -0.49 -17.05 -0.66 -0.66 -38.14 -0.80 -38.58 -0.09 -0.49 0.80 -0.44 33.27 0.04 33.80 0.40 0.35 25.43 0.40 35.83 0.04z m3.06 -63.21 c0.09 -9.12 -0.04 -16.83 -0.22 -17.14 -0.53 -0.84 -38.14 -0.89 -38.67 -0.04 -0.44 0.66 -0.53 32.25 -0.13 33.31 0.27 0.66 2.26 0.71 19.62 0.62 l19.31 -0.13 0.09 -16.61z m-0.09 -47.40 l0 -17.05 -19 -0.13 c-13.64 -0.04 -19.18 0.04 -19.58 0.40 -0.89 0.71 -0.93 33.44 -0.04 33.75 0.27 0.13 9.12 0.22 19.58 0.18 l19.05 -0.09 0 -17.05z m0.13 -46.24 c0.04 -11.56 -0.04 -16.97 -0.40 -17.36 -0.62 -0.80 -37.39 -0.93 -38.32 -0.13 -0.84 0.71 -0.93 33.13 -0.09 33.97 0.40 0.40 5.36 0.49 19.58 0.40 l19.09 -0.09 0.13 -16.79z"/>
  <path d="M140.42 363.84 c0 -0.49 1.51 -1.46 2.26 -1.51 0.44 0 0.71 -0.31 0.66 -0.75 -0.04 -0.53 0.31 -0.84 1.02 -0.93 0.75 -0.13 0.97 0 0.80 0.49 -0.18 0.49 0.09 0.58 1.59 0.27 1.02 -0.18 1.90 -0.53 1.99 -0.80 0.22 -0.71 1.37 -0.62 2.13 0.18 0.84 0.80 2.70 0.89 2.92 0.13 0.18 -0.53 3.01 1.86 3.01 2.52 0 0.35 -1.46 0.18 -6.56 -0.66 -2.44 -0.40 -3.37 -0.44 -3.77 -0.04 -0.27 0.27 -0.93 0.49 -1.51 0.49 -0.58 0 -1.02 0.22 -1.02 0.44 0 0.27 -0.80 0.44 -1.77 0.44 -0.97 0 -1.77 -0.13 -1.77 -0.27z"/>
  <path d="M145.73 360.56 c0 -0.22 0.49 -0.44 1.11 -0.44 0.62 0 1.11 0.22 1.11 0.44 0 0.27 -0.49 0.44 -1.11 0.44 -0.62 0 -1.11 -0.18 -1.11 -0.44z"/>
  <path d="M301.21 344.48 c0 -0.35 -0.44 -0.84 -0.97 -1.11 -0.58 -0.27 -0.80 -0.49 -0.49 -0.49 0.35 -0.04 0.44 -0.58 0.27 -1.59 -0.22 -1.33 -0.13 -1.55 0.62 -1.55 0.66 0 0.97 0.40 1.20 1.37 0.40 2.08 0.31 3.94 -0.18 3.94 -0.22 0 -0.44 -0.27 -0.44 -0.58z"/>
  <path d="M196.36 334.74 c0.66 -1.77 0.09 -1.86 -16.52 -1.99 -17.32 -0.09 -17.54 -0.13 -19.45 -2.57 -0.66 -0.84 -0.93 -1.82 -0.93 -3.50 0 -1.68 0.27 -2.66 0.93 -3.50 1.95 -2.48 1.90 -2.48 21.66 -2.48 15.55 -0.04 18.25 -0.13 18.47 -0.66 0.44 -1.20 1.02 -0.66 1.02 0.93 0 1.95 -1.55 8.42 -2.79 11.78 -0.71 1.86 -1.20 2.57 -1.82 2.57 -0.49 0 -0.71 -0.22 -0.58 -0.58z"/>
  <path d="M202.43 333.99 c0 -1.55 2.04 -9.83 2.92 -11.83 0.35 -0.75 0.75 -1.99 0.89 -2.75 0.40 -1.90 1.95 -1.95 1.95 -0.04 l0 1.33 41.33 0 c23.08 0 41.55 -0.18 41.90 -0.40 0.35 -0.22 0.53 -0.80 0.35 -1.33 -0.18 -0.75 -0.04 -0.93 0.75 -0.93 0.75 0 1.20 0.49 1.77 1.90 2.52 6.11 3.46 9.52 3.23 12.09 -0.13 1.73 -0.22 1.95 -0.49 1.20 -0.22 -0.58 -0.53 -0.93 -0.71 -0.80 -0.18 0.13 -20.55 0.22 -45.23 0.22 -24.67 0 -45.36 0.13 -45.89 0.27 -0.58 0.18 -1.15 0.71 -1.28 1.33 -0.40 1.55 -1.51 1.37 -1.51 -0.27z"/>
  <path d="M322.65 325.92 c-0.35 -0.58 -1.02 -3.37 -1.37 -5.76 -0.27 -1.82 0.40 -2.26 1.15 -0.84 0.62 1.15 1.68 1.46 2.75 0.80 0.71 -0.44 0.93 -0.40 1.28 0.13 0.35 0.49 0.44 0.13 0.35 -1.33 -0.04 -1.11 -0.27 -2.13 -0.53 -2.30 -0.27 -0.18 -0.04 -0.35 0.53 -0.35 0.58 0 0.97 -0.27 0.97 -0.66 0 -0.35 0.22 -0.66 0.44 -0.66 0.27 0 0.44 1.02 0.44 2.21 0 1.24 -0.18 2.21 -0.40 2.21 -0.18 0 -0.53 1.59 -0.66 3.54 l-0.31 3.54 -2.17 0 c-1.20 0 -2.30 -0.22 -2.48 -0.53z"/>
  <path d="M333.10 314.41 c0 -3.37 1.42 -4.78 1.99 -2.04 0.27 1.02 0.13 1.55 -0.40 1.90 -0.40 0.31 -0.71 0.75 -0.71 1.06 0 0.27 -0.18 0.49 -0.44 0.49 -0.22 0 -0.44 -0.66 -0.44 -1.42z"/>
  <path d="M203.14 311.97 c0.18 -0.84 0.13 -1.06 -0.18 -0.66 -0.31 0.49 -0.49 0.40 -0.66 -0.35 -0.22 -0.80 -0.09 -0.93 0.62 -0.75 0.62 0.18 0.84 0 0.84 -0.62 0 -0.44 0.22 -0.84 0.44 -0.84 0.49 0 0.62 2.61 0.18 3.72 -0.13 0.40 -0.53 0.71 -0.89 0.71 -0.44 0 -0.58 -0.35 -0.35 -1.20z"/>
  <path d="M289.47 311.84 c-0.40 -0.71 -0.89 -1.33 -1.15 -1.33 -0.27 0 -0.31 -0.22 -0.13 -0.49 0.18 -0.35 0.40 -0.31 0.66 0.09 0.27 0.44 0.40 0.44 0.40 0.09 0 -0.27 -0.18 -0.66 -0.44 -0.80 -0.84 -0.53 -0.49 -1.99 0.44 -1.99 0.58 0 0.89 0.31 0.89 0.89 0 0.49 0.22 0.89 0.44 0.89 0.27 0 0.44 0.89 0.44 1.99 0 2.30 -0.58 2.57 -1.55 0.66z"/>
  <path d="M208.63 310.73 c0 -2.17 1.20 -5.05 2.13 -5.09 0.58 0 0.49 0.58 -0.27 2.61 -0.13 0.40 -0.04 0.53 0.27 0.31 0.31 -0.18 0.53 -0.13 0.53 0.13 0 0.22 -0.18 0.53 -0.40 0.66 -0.22 0.13 -0.53 0.97 -0.66 1.82 -0.44 2.35 -1.59 2.04 -1.59 -0.44z"/>
  <path d="M285.26 300.10 c0 -0.35 -0.40 -1.06 -0.89 -1.55 -0.49 -0.49 -0.71 -0.89 -0.49 -0.89 0.22 0 0.31 -0.40 0.18 -0.89 -0.13 -0.49 -0.53 -0.89 -0.89 -0.89 -0.44 0 -0.58 -0.27 -0.40 -0.71 0.13 -0.40 0.27 -1.20 0.27 -1.77 0 -0.71 0.27 -1.06 0.80 -1.06 0.58 0 1.06 0.75 1.77 2.83 1.15 3.37 1.28 5.58 0.31 5.58 -0.35 0 -0.66 -0.31 -0.66 -0.66z"/>
  <path d="M331.51 299.57 c0.18 -0.80 0.13 -1.02 -0.09 -0.62 -0.31 0.40 -0.49 0.18 -0.62 -0.84 -0.18 -1.20 -0.09 -1.37 0.62 -1.20 0.58 0.18 0.84 0 0.75 -0.49 -0.09 -1.28 0.58 -2.75 1.24 -2.75 0.58 0 0.62 0.44 0.40 2.70 -0.35 2.92 -1.02 4.39 -1.95 4.39 -0.44 0 -0.53 -0.35 -0.35 -1.20z"/>
  <path d="M207.88 293.15 c0.58 -1.55 0.80 -2.75 0.40 -2.17 -0.31 0.40 -0.49 0.22 -0.62 -0.84 -0.18 -1.20 -0.09 -1.37 0.62 -1.20 1.06 0.31 1.06 -1.24 0 -2.17 -0.71 -0.58 -2.92 -0.66 -17.10 -0.62 -15.81 0.04 -16.30 0 -17.94 -0.93 -2.17 -1.20 -3.14 -2.92 -3.14 -5.54 0 -1.86 0.18 -2.26 1.73 -3.72 0.93 -0.89 2.39 -1.77 3.19 -1.95 0.84 -0.18 9.39 -0.27 19 -0.27 9.61 0.04 17.72 0.04 18.03 0 0.31 0 0.44 -0.31 0.31 -0.66 -0.18 -0.35 -0.04 -0.66 0.22 -0.66 0.27 0 0.49 -0.31 0.49 -0.66 0 -0.35 0.22 -0.66 0.44 -0.66 0.62 0 0.53 2.61 -0.18 5.14 -0.35 1.20 -1.15 4.87 -1.82 8.15 -1.24 6.51 -2.21 9.30 -3.23 9.30 -0.35 0 -0.53 -0.27 -0.40 -0.53z"/>
  <path d="M334.08 286.99 c0.22 -1.33 0.18 -1.37 -1.11 -1.11 -0.71 0.13 -5.85 0.27 -11.43 0.27 -8.73 0 -10.14 0.09 -10.14 0.66 0 1.42 -1.59 0.66 -2.17 -0.97 -0.31 -0.93 -0.84 -2.26 -1.20 -3.01 -1.59 -3.63 -1.99 -5.01 -2.21 -7.80 -0.22 -2.17 -0.18 -3.06 0.22 -3.06 0.27 0 0.49 0.53 0.49 1.24 0 0.66 0.18 1.02 0.35 0.75 0.18 -0.27 5.80 -0.44 15.28 -0.44 9.66 0 14.93 0.18 14.93 0.44 0 0.27 0.27 0.04 0.53 -0.40 0.40 -0.66 0.31 -0.97 -0.35 -1.46 -0.75 -0.53 -0.75 -0.58 0.18 -0.58 0.58 0 0.97 -0.27 0.97 -0.66 0 -0.35 0.22 -0.66 0.49 -0.66 0.93 0 0.13 6.16 -1.33 10.59 -0.75 2.30 -1.51 4.96 -1.64 5.89 -0.22 1.28 -0.49 1.68 -1.15 1.68 -0.75 0 -0.89 -0.22 -0.71 -1.37z"/>
  <path d="M215.45 284.15 c0.22 -4.83 2.39 -13.07 3.46 -13.07 0.58 0 0.80 0.35 0.80 1.33 l0 1.33 27.91 0 27.95 0 -0.31 -1.55 c-0.22 -1.33 -0.18 -1.55 0.53 -1.55 1.15 0.04 3.50 5.27 5.05 11.07 0.53 2.17 0.40 6.69 -0.18 5.09 -0.31 -0.89 -0.66 -0.89 -32.20 -0.75 l-31.85 0.09 -0.04 -0.97 c0 -0.71 -0.22 -0.49 -0.62 0.75 -0.62 1.73 -0.62 1.73 -0.49 -1.77z"/>
  <path d="M213.68 269.01 c0.18 -0.80 0.13 -1.02 -0.09 -0.62 -0.31 0.40 -0.49 0.22 -0.62 -0.80 -0.22 -1.37 0.66 -1.99 1.11 -0.80 0.13 0.27 0.27 0 0.27 -0.66 0.09 -2.08 0.93 -1.37 0.93 0.71 0 2.44 -0.35 3.37 -1.20 3.37 -0.49 0 -0.62 -0.31 -0.40 -1.20z"/>
  <path d="M219.39 265.02 c0.13 -1.64 0.44 -3.06 0.71 -3.14 0.27 -0.09 0.49 -0.62 0.49 -1.20 0 -1.64 0.49 -2.44 1.46 -2.44 0.71 0 0.80 0.13 0.40 0.53 -0.31 0.31 -0.53 0.84 -0.53 1.24 0 0.58 0.09 0.58 0.49 0 0.40 -0.53 0.44 -0.53 0.22 0.13 -0.13 0.44 -0.27 1.02 -0.27 1.24 0 0.27 -0.18 0.35 -0.40 0.22 -0.22 -0.13 -0.49 0.31 -0.58 1.06 -0.09 0.71 -0.04 1.20 0.18 1.06 0.18 -0.13 0.35 -0.04 0.35 0.22 0 0.22 -0.18 0.53 -0.40 0.66 -0.22 0.13 -0.53 0.97 -0.66 1.82 -0.22 1.02 -0.58 1.55 -1.02 1.55 -0.58 0 -0.66 -0.44 -0.44 -2.97z"/>
  <path d="M273.74 266.97 c0 -0.35 -0.44 -0.84 -0.97 -1.15 -0.58 -0.27 -0.66 -0.40 -0.22 -0.31 0.80 0.27 1.06 -0.40 0.31 -0.84 -0.22 -0.13 -0.44 -0.75 -0.44 -1.37 0 -0.75 0.27 -1.06 0.84 -1.06 0.62 0 0.89 0.44 1.11 1.68 0.40 2.39 0.31 3.63 -0.18 3.63 -0.22 0 -0.44 -0.27 -0.44 -0.58z"/>
  <path d="M301.21 261.34 c0 -0.49 -0.18 -0.89 -0.44 -0.89 -0.22 0 -0.44 -0.80 -0.44 -1.77 0 -0.97 0.22 -1.77 0.44 -1.77 0.27 0 0.44 0.31 0.44 0.66 0 0.35 0.22 0.66 0.44 0.66 0.27 0 0.44 0.27 0.40 0.58 -0.13 1.20 0.04 2.13 0.44 1.90 0.22 -0.18 0.31 0.13 0.18 0.62 -0.31 1.15 -1.46 1.15 -1.46 0z"/>
  <path d="M267.59 251.24 c-0.66 -0.71 -0.80 -1.02 -0.31 -0.84 0.40 0.18 0.71 0.09 0.71 -0.13 0 -0.27 -0.18 -0.44 -0.35 -0.44 -0.18 0 -0.35 -0.40 -0.35 -0.89 0 -1.24 1.42 -1.15 1.77 0.13 0.35 1.37 0.31 3.41 -0.04 3.37 -0.22 -0.04 -0.84 -0.58 -1.42 -1.20z"/>
  <path d="M218.64 245.75 c-0.49 -1.82 -0.31 -3.14 0.35 -2.88 0.40 0.18 0.58 0 0.49 -0.49 -0.04 -0.40 0.09 -1.11 0.31 -1.59 0.27 -0.49 0.27 -0.71 0 -0.58 -0.22 0.18 -0.80 0 -1.24 -0.35 -0.71 -0.53 -6.42 -0.62 -38.27 -0.66 -36.54 0 -37.47 -0.04 -38.89 -0.89 -3.99 -2.44 -4.21 -7.88 -0.40 -10.19 1.37 -0.84 2.52 -0.89 41.15 -0.89 31.32 0 39.73 0.13 39.87 0.53 0.13 0.31 0.35 -0.27 0.49 -1.33 0.22 -1.20 0.53 -1.86 0.97 -1.86 0.84 0 0.89 2.61 0.04 5.58 -0.31 1.20 -0.84 3.68 -1.15 5.49 -1.02 6.60 -2.21 11.07 -2.92 11.07 -0.27 0 -0.62 -0.44 -0.80 -0.97z"/>
  <path d="M224.71 241.76 c0.18 -1.28 0.58 -3.94 0.97 -5.89 0.40 -1.95 0.84 -4.39 0.97 -5.40 0.13 -1.06 0.35 -1.90 0.58 -1.90 0.18 0 0.44 -0.80 0.62 -1.77 0.22 -1.37 0.49 -1.77 1.15 -1.77 0.71 0 0.84 0.22 0.71 1.06 l-0.18 1.11 14 0 c7.71 0 14.40 -0.13 14.84 -0.27 0.49 -0.13 0.71 -0.49 0.58 -0.84 -0.18 -0.44 0.09 -0.62 0.80 -0.62 0.84 0 1.20 0.40 1.73 1.90 0.40 1.02 1.20 3.06 1.77 4.52 1.24 2.97 2.04 8.64 1.24 8.64 -0.27 0 -0.49 -0.31 -0.49 -0.66 0 -0.58 -2.30 -0.66 -18.12 -0.66 l-18.12 0 -0.66 1.02 c-0.35 0.53 -0.80 1.64 -0.93 2.44 -0.22 0.84 -0.62 1.42 -1.02 1.42 -0.58 0 -0.62 -0.40 -0.44 -2.30z"/>
  <path d="M293.54 239.95 c-0.44 -1.51 -1.11 -3.32 -1.42 -4.08 -1.46 -3.19 -1.99 -4.83 -2.26 -6.91 -0.18 -1.20 -0.44 -2.17 -0.66 -2.17 -0.22 0 -0.40 -0.71 -0.40 -1.55 0 -0.84 0.13 -1.55 0.27 -1.55 0.58 0 1.46 1.59 1.51 2.66 0.04 0.62 0.18 0.84 0.31 0.58 0.13 -0.40 0.44 -0.44 1.02 -0.13 0.84 0.44 55.32 0.62 57.05 0.13 0.53 -0.13 1.11 -0.71 1.24 -1.28 0.40 -1.51 1.51 -1.37 1.51 0.18 0 1.37 -1.73 8.42 -3.19 13.24 -0.84 2.70 -1.20 3.23 -1.99 3.23 -0.84 0 -0.93 -0.18 -0.71 -1.55 l0.27 -1.55 -25.20 0.09 -25.20 0.13 0.13 1.68 c0.13 1.33 0 1.64 -0.66 1.64 -0.62 0 -0.97 -0.66 -1.59 -2.79z"/>
  <path d="M224.13 221.61 c-0.04 -0.22 -0.22 -1.24 -0.40 -2.26 -0.35 -1.77 -0.31 -1.90 0.44 -1.73 0.71 0.18 0.84 -0.04 0.89 -1.15 0.09 -1.95 -0.04 -2.70 -0.53 -2.88 -0.22 -0.09 -0.40 -0.35 -0.40 -0.58 0 -0.62 1.24 -0.49 1.46 0.18 0.13 0.27 0.27 0 0.27 -0.66 0.09 -2.35 0.93 -1.24 0.93 1.20 0 1.33 -0.18 2.44 -0.44 2.44 -0.22 0 -0.44 0.66 -0.44 1.51 0 2.39 -0.49 4.25 -1.15 4.25 -0.35 0 -0.62 -0.13 -0.62 -0.31z"/>
  <path d="M353.34 215.72 c-0.13 -0.49 0 -1.02 0.22 -1.20 0.31 -0.18 0.18 -0.53 -0.35 -0.93 -0.80 -0.62 -0.80 -0.62 0.18 -0.40 0.75 0.18 0.97 0.04 0.97 -0.62 0 -0.44 0.22 -0.84 0.44 -0.84 0.27 0 0.44 1.11 0.44 2.44 0 2.08 -0.13 2.44 -0.84 2.44 -0.44 0 -0.93 -0.40 -1.06 -0.89z"/>
  <path d="M284.69 214.52 c-0.49 -0.44 -0.35 -4.12 0.13 -4.12 0.27 0 0.44 0.27 0.44 0.62 0 0.35 0.18 0.71 0.40 0.80 0.44 0.13 0.62 0.97 0.53 2.26 -0.04 0.75 -0.93 1.02 -1.51 0.44z"/>
  <path d="M279.50 199.06 c-0.27 -0.62 -0.44 -1.51 -0.44 -1.99 0 -0.44 -0.18 -0.84 -0.44 -0.84 -0.22 0 -0.53 -0.53 -0.71 -1.20 -0.53 -2.39 -1.64 -5.71 -2.75 -8.11 -0.58 -1.33 -1.20 -3.28 -1.33 -4.30 -0.09 -1.06 -0.40 -1.90 -0.58 -1.90 -0.22 0 -0.40 -0.80 -0.40 -1.77 0 -0.97 0.13 -1.77 0.27 -1.77 0.58 0 1.46 1.59 1.51 2.66 0.04 0.62 0.13 0.93 0.27 0.66 0.13 -0.31 15.59 -0.40 45.45 -0.31 40.04 0.09 45.31 0.04 45.67 -0.58 0.58 -1.02 1.20 -0.80 1.20 0.44 0 1.28 -1.68 6.87 -2.26 7.53 -0.22 0.22 -0.40 0.75 -0.40 1.15 0 0.40 -0.31 0.97 -0.66 1.28 -0.35 0.31 -0.89 1.33 -1.20 2.26 -0.35 1.20 -0.75 1.73 -1.33 1.73 -0.44 0 -0.80 -0.27 -0.80 -0.62 0 -0.44 -1.24 -0.66 -4.92 -0.89 -6.95 -0.44 -76.10 -0.22 -76.41 0.22 -0.13 0.22 0 0.40 0.22 0.40 0.27 0 0.49 0.71 0.49 1.55 0 0.84 0.22 1.55 0.49 1.55 0.27 0 0.40 0.31 0.22 0.66 -0.13 0.35 -0.04 0.66 0.13 0.66 0.22 0 0.53 0.31 0.66 0.71 0.18 0.40 0.09 0.58 -0.22 0.35 -0.35 -0.18 -0.40 0.04 -0.18 0.66 0.44 1.42 -1.02 1.20 -1.55 -0.22z"/>
  <path d="M229.23 194.06 c-0.22 -1.11 -0.53 -1.28 -2.30 -1.55 -1.11 -0.13 -16.66 -0.27 -34.55 -0.27 -34.64 0 -33.75 0.04 -35.70 -2.13 -0.44 -0.44 -0.89 -1.82 -1.02 -3.01 -0.27 -2.57 0.71 -4.52 3.01 -5.94 1.42 -0.84 2.30 -0.89 37.47 -0.89 31.67 0 35.97 -0.09 35.97 -0.66 0 -0.35 0.31 -0.66 0.66 -0.66 0.80 0 0.84 1.24 0.18 5.27 -1.55 9.66 -2.97 13.29 -3.72 9.83z"/>
  <path d="M234.94 192.60 c0.44 -4.12 1.11 -7.62 2.30 -12.31 0.58 -2.30 1.11 -4.70 1.15 -5.32 0.13 -0.97 0.35 -1.11 2.26 -1.24 l2.08 -0.13 0 1.55 c0 1.59 -0.58 2.13 -1.02 0.97 -0.13 -0.31 -0.62 -0.66 -1.11 -0.80 -0.66 -0.18 -0.80 -0.04 -0.62 0.75 0.09 0.53 -0.13 1.28 -0.53 1.68 -0.40 0.35 -0.71 0.97 -0.71 1.28 0 0.44 0.13 0.40 0.44 -0.09 0.35 -0.53 0.44 -0.49 0.44 0.35 0 0.84 0.22 0.97 1.55 0.97 1.06 0 1.55 -0.22 1.55 -0.66 0 -0.35 0.31 -0.66 0.62 -0.66 1.28 0 4.96 9.43 5.45 14.09 0.27 2.08 -0.31 2.44 -1.20 0.75 -0.49 -0.93 -0.93 -1.11 -2.83 -1.15 -1.24 0 -3.06 -0.09 -4.03 -0.18 -2.97 -0.27 -4.12 0.13 -4.43 1.59 -0.18 0.75 -0.58 1.28 -0.97 1.28 -0.58 0 -0.66 -0.44 -0.40 -2.75z"/>
  <path d="M410.04 175.54 c-0.40 -0.09 -0.66 -0.40 -0.53 -0.62 0.18 -0.22 -0.13 -0.40 -0.62 -0.40 -0.53 0 -0.93 -0.18 -0.93 -0.44 0 -0.27 1.24 -0.44 2.83 -0.44 1.51 0 4.03 -0.13 5.54 -0.27 2.21 -0.27 2.70 -0.18 2.70 0.35 0 0.40 -0.93 0.93 -2.35 1.37 -2.57 0.80 -4.03 0.97 -3.68 0.40 0.13 -0.22 -0.04 -0.40 -0.40 -0.40 -0.35 0 -0.53 0.18 -0.40 0.40 0.22 0.35 -0.80 0.40 -2.17 0.04z"/>
  <path d="M402.64 169.34 c-0.35 -0.44 -0.66 -1.06 -0.71 -1.33 -0.09 -1.28 -0.22 -1.42 -0.93 -1.15 -0.71 0.27 -0.66 0.13 0.09 -0.71 0.49 -0.58 0.80 -1.15 0.71 -1.33 -0.13 -0.13 0.13 -0.31 0.53 -0.40 0.75 -0.13 1.64 2.21 1.64 4.47 0 1.37 -0.40 1.51 -1.33 0.44z"/>
  <path d="M268.96 168.19 c-0.66 -1.82 -0.71 -4.30 -0.09 -4.30 0.27 0 0.44 0.31 0.44 0.66 0 0.35 0.22 0.66 0.49 0.66 0.27 0 0.35 0.31 0.22 0.71 -0.13 0.35 -0.09 0.53 0.18 0.40 0.44 -0.27 0.53 0 0.62 2.13 0.09 1.73 -1.20 1.55 -1.86 -0.27z"/>
  <path d="M226.35 159.91 c-1.55 -0.75 -4.74 -1.64 -5.85 -1.59 -0.62 0.04 -1.06 -0.09 -0.97 -0.27 0.13 -0.18 -0.18 -0.35 -0.66 -0.35 -0.53 0 -0.93 -0.22 -0.93 -0.49 0 -0.62 6.29 -0.27 8.99 0.49 1.33 0.40 1.64 0.66 1.64 1.64 0 0.93 -0.13 1.02 -0.62 0.62 -0.35 -0.31 -0.71 -0.35 -0.80 -0.13 -0.04 0.22 -0.44 0.27 -0.80 0.09z"/>
  <path d="M384.93 156.67 c0 -1.15 0.18 -1.64 0.66 -1.64 0.40 0 0.66 -0.40 0.66 -1.06 0 -1.11 0.71 -1.59 2.30 -1.59 0.93 0 0.93 0 0.09 0.97 -0.53 0.58 -0.58 0.80 -0.18 0.58 0.58 -0.35 0.58 -0.27 0.04 0.35 -0.31 0.40 -0.75 0.66 -0.93 0.53 -0.22 -0.13 -0.53 0.22 -0.71 0.75 -0.13 0.53 -0.66 1.37 -1.11 1.86 -0.84 0.89 -0.84 0.84 -0.84 -0.75z"/>
  <path d="M402.20 156.85 c0 -0.71 -0.27 -1.42 -0.53 -1.55 -0.31 -0.13 -0.18 -0.22 0.31 -0.13 0.62 0.09 1.02 -0.27 1.33 -1.20 0.66 -1.95 1.55 -1.99 1.55 -0.09 0 0.89 -0.18 1.59 -0.44 1.59 -0.22 0 -0.44 0.62 -0.44 1.33 0 1.02 -0.18 1.33 -0.89 1.33 -0.66 0 -0.89 -0.31 -0.89 -1.28z"/>
  <path d="M263.34 153.62 c-0.40 -0.93 -0.80 -1.02 -4.52 -1.15 -3.28 -0.09 -4.12 -0.27 -4.12 -0.75 0 -0.35 0.31 -0.66 0.66 -0.66 0.35 0 0.66 -0.18 0.66 -0.44 0 -0.27 1.77 -0.44 4.43 -0.44 l4.39 0 0.31 1.68 c0.18 0.89 0.49 1.90 0.75 2.21 0.31 0.40 0.09 0.53 -0.84 0.53 -0.93 0 -1.42 -0.31 -1.73 -0.97z"/>
  <path d="M209.96 152.11 c0 -0.49 0.18 -1.06 0.35 -1.37 0.44 -0.71 5.98 -0.89 6.20 -0.22 0.09 0.31 0.44 0.53 0.80 0.53 0.35 0 0.62 0.31 0.62 0.66 0 0.53 -0.58 0.66 -2.61 0.66 -1.42 0 -3.23 0.13 -3.99 0.27 -1.15 0.22 -1.37 0.13 -1.37 -0.53z"/>
  <path d="M430.15 147.90 c-0.62 -1.77 -0.62 -4.39 -0.04 -4.39 0.27 0 0.44 0.31 0.44 0.66 0 0.35 0.18 0.66 0.40 0.66 0.58 0 1.33 2.48 1.06 3.50 -0.35 1.37 -1.33 1.11 -1.86 -0.44z"/>
  <path d="M403.09 143.12 c0 -1.15 0.40 -1.37 3.10 -1.68 1.86 -0.22 2.21 -0.13 2.21 0.44 0 0.44 -0.53 0.80 -1.55 1.02 -0.84 0.13 -1.55 0.44 -1.55 0.66 0 0.22 -0.22 0.40 -0.49 0.40 -0.22 0 -0.31 -0.22 -0.13 -0.49 0.18 -0.35 0 -0.35 -0.66 0 -0.80 0.44 -0.93 0.40 -0.93 -0.35z"/>
  <path d="M392.01 142.72 c0 -0.18 0.40 -0.58 0.93 -0.89 0.49 -0.31 0.80 -0.84 0.71 -1.20 -0.31 -0.71 1.42 -1.24 2.17 -0.62 0.40 0.31 0.80 0.13 1.46 -0.53 l0.93 -1.02 0 1.02 c0 1.02 -0.93 2.26 -1.68 2.26 -0.22 0 -0.66 0.31 -0.97 0.66 -0.58 0.66 -3.54 0.93 -3.54 0.31z"/>
  <path d="M401.76 137.98 c0 -0.35 0.31 -0.66 0.66 -0.66 0.40 0 0.80 -0.31 0.93 -0.66 0.31 -0.75 1.51 -0.89 1.51 -0.18 0 0.27 0.31 0.40 0.66 0.22 0.44 -0.13 0.66 0.04 0.66 0.58 0 0.97 -0.84 1.37 -2.92 1.37 -1.06 0 -1.51 -0.22 -1.51 -0.66z"/>
  <path d="M406.63 136.87 c0 -0.22 0.66 -0.49 1.46 -0.49 0.75 -0.04 1.06 -0.13 0.66 -0.27 -1.59 -0.40 -0.71 -0.89 2.04 -1.20 1.55 -0.13 3.19 -0.13 3.63 0.04 1.02 0.35 2.39 1.55 2.39 1.99 0 0.22 -2.30 0.35 -5.09 0.35 -3.10 0 -5.09 -0.18 -5.09 -0.44z"/>
 </g>
 <g fill="#ebb32c">
  <path d="M145.07 399.94 c-4.83 -0.62 -7.09 -1.55 -9.52 -3.94 -3.46 -3.41 -4.78 -7.35 -4.70 -13.78 0.09 -3.99 0.18 -4.39 2.21 -8.81 3.50 -7.57 7.18 -10.81 13.47 -11.96 4.47 -0.80 9.66 0.40 11.87 2.79 1.90 1.99 2.48 3.23 3.01 6.51 0.49 2.83 0.09 6.82 -0.97 10.41 -0.58 1.86 -4.47 7.84 -6.64 10.14 -1.02 1.11 -1.86 2.13 -1.86 2.26 0 0.35 4.47 -0.04 7.88 -0.71 1.24 -0.27 2.30 -0.66 2.30 -0.89 0 -0.27 0.75 -0.75 1.68 -1.11 3.85 -1.59 4.92 -2.30 8.24 -5.49 3.81 -3.63 9.30 -11.43 10.90 -15.55 1.15 -2.92 2.30 -5.40 2.61 -5.71 0.71 -0.62 1.64 -2.83 2.92 -6.91 0.80 -2.44 1.68 -4.87 1.95 -5.32 1.33 -2.44 2.97 -7 4.03 -11.47 0.44 -1.95 1.33 -4.34 2.61 -7.53 0.53 -1.20 1.15 -3.46 2.75 -9.88 0.75 -2.97 1.64 -5.98 1.99 -6.64 0.31 -0.66 1.11 -3.50 1.73 -6.29 1.42 -6.42 2.97 -12.49 4.34 -17.10 0.62 -1.99 1.20 -4.25 1.33 -5.09 0.49 -3.46 2.21 -11.07 3.23 -14.35 0.62 -1.95 1.82 -7.04 2.70 -11.30 1.82 -9.04 2.04 -9.97 3.01 -13.51 0.75 -2.75 1.95 -8.64 2.88 -14.40 0.31 -1.82 0.84 -4.30 1.15 -5.49 0.35 -1.20 0.62 -2.75 0.62 -3.46 0 -0.66 0.18 -1.24 0.35 -1.24 0.44 0 1.02 -2.48 2.08 -8.86 1.11 -6.42 1.55 -8.90 1.99 -10.99 0.27 -1.02 0.44 -2.35 0.44 -2.88 0 -0.58 0.18 -1.20 0.44 -1.46 0.40 -0.40 2.48 -10.68 3.54 -17.45 0.27 -1.82 0.71 -4.30 0.97 -5.54 0.27 -1.20 0.58 -3.85 0.66 -5.89 0.18 -3.32 0.09 -3.94 -1.02 -6.33 -2.21 -4.78 -6.60 -6.56 -18.21 -7.26 -5.67 -0.40 -5.58 -0.31 -4.39 -4.21 l0.58 -1.99 26.98 0 26.93 0.04 0.80 1.28 c1.24 2.13 2.13 4.25 3.01 7.31 1.51 5.40 2.75 9.08 3.54 10.63 0.44 0.84 1.55 4.16 2.44 7.31 0.93 3.14 2.08 6.73 2.66 7.97 0.53 1.20 1.28 3.23 1.68 4.43 1.99 6.56 3.10 9.92 3.81 11.52 0.44 0.97 1.64 4.39 2.61 7.62 1.02 3.19 2.21 6.69 2.66 7.75 0.49 1.06 1.59 4.30 2.52 7.22 1.90 6.25 2.92 9.12 3.37 9.74 0.18 0.27 1.06 2.83 1.95 5.76 0.93 2.92 2.30 7 3.10 9.08 0.80 2.08 2.35 6.56 3.46 9.97 1.11 3.41 2.57 7.88 3.32 9.97 0.71 2.08 1.55 4.65 1.86 5.76 0.80 2.83 1.86 5.89 2.26 6.42 0.18 0.27 0.93 2.44 1.73 4.87 0.75 2.44 1.77 5.45 2.21 6.64 2.04 5.58 3.14 8.81 4.78 13.73 0.93 2.92 2.57 7.80 3.59 10.85 1.02 3.06 1.99 6.02 2.17 6.64 0.18 0.66 0.71 1.15 1.24 1.24 0.80 0.13 0.97 -0.13 1.20 -1.77 0.13 -1.06 1.06 -5.67 2.08 -10.32 0.97 -4.61 1.82 -8.73 1.86 -9.08 0 -0.35 0.18 -0.75 0.31 -0.89 0.40 -0.35 1.28 -3.85 2.97 -11.96 0.80 -4.03 1.99 -8.81 2.57 -10.63 0.62 -1.82 1.20 -3.81 1.33 -4.43 0.18 -1.02 1.33 -6.16 1.77 -8.19 0.13 -0.49 0.53 -2.26 0.93 -3.99 0.40 -1.68 1.20 -4.47 1.77 -6.20 0.58 -1.68 1.68 -5.98 2.48 -9.52 0.75 -3.50 1.55 -6.69 1.73 -7.09 1.06 -1.99 4.87 -15.95 4.87 -17.76 0 -0.35 0.31 -1.20 0.71 -1.95 0.75 -1.37 2.61 -7.49 3.94 -12.85 0.44 -1.68 1.33 -4.34 2.04 -5.85 0.71 -1.51 1.55 -3.81 1.90 -5.09 1.33 -4.96 2.52 -8.24 3.14 -8.77 0.35 -0.31 0.66 -0.89 0.66 -1.28 0 -0.40 0.18 -0.93 0.40 -1.15 0.18 -0.27 1.02 -2.35 1.82 -4.65 1.46 -4.34 2.52 -6.69 3.10 -7.09 0.18 -0.13 1.24 -2.30 2.39 -4.83 1.11 -2.52 2.39 -5.05 2.83 -5.54 0.44 -0.53 1.59 -2.30 2.48 -4.03 0.93 -1.68 1.95 -3.32 2.30 -3.59 0.31 -0.27 0.49 -0.62 0.31 -0.75 -0.13 -0.18 -0.09 -0.31 0.18 -0.31 0.27 0 1.11 -0.97 1.90 -2.21 2.26 -3.50 9.57 -10.14 13.02 -11.87 1.64 -0.84 3.37 -1.86 3.81 -2.30 0.44 -0.44 2.70 -1.24 5.14 -1.82 3.50 -0.84 5.58 -1.06 10.37 -1.02 6.95 0.04 10.59 0.84 12.80 2.88 0.80 0.71 1.59 1.28 1.82 1.28 0.27 0 0.89 0.75 1.46 1.68 3.50 5.49 3.32 15.86 -0.31 23.03 -1.51 3.01 -5.76 7.44 -8.19 8.59 -2.92 1.33 -10.90 1.42 -13.78 0.13 -1.11 -0.49 -2.26 -1.15 -2.57 -1.55 -0.75 -0.89 -2.30 -4.21 -2.66 -5.67 -0.53 -2.57 -0.22 -7.04 0.75 -10.28 1.02 -3.37 2.83 -7.31 3.46 -7.62 0.44 -0.18 4.56 -5.58 4.56 -5.98 0 -0.40 -5.36 0.22 -7.09 0.84 -6.42 2.39 -14.53 8.37 -17.01 12.54 -0.58 0.97 -1.55 2.35 -2.17 3.06 -0.62 0.71 -2.04 3.10 -3.19 5.32 -1.15 2.21 -2.44 4.47 -2.88 5.01 -0.44 0.58 -1.42 2.66 -2.21 4.65 -0.84 2.04 -2.04 4.74 -2.75 5.98 -0.71 1.28 -2.17 4.96 -3.28 8.19 -1.15 3.23 -2.21 5.94 -2.44 6.02 -0.22 0.09 -0.97 2.17 -1.73 4.65 -1.68 5.49 -3.10 9.66 -3.59 10.32 -0.22 0.27 -1.15 3.32 -2.13 6.87 -0.93 3.50 -2.04 7.18 -2.48 8.15 -1.15 2.75 -1.82 4.96 -2.88 9.52 -0.53 2.30 -1.37 5.45 -1.82 6.95 -0.44 1.51 -0.84 3.06 -0.84 3.46 0 0.40 -0.18 0.62 -0.40 0.49 -0.22 -0.13 -0.49 0.31 -0.58 0.97 -0.84 4.87 -4.30 18.29 -4.83 18.69 -0.13 0.13 -0.40 0.84 -0.53 1.55 -0.89 5.23 -4.03 18.25 -4.78 19.93 -0.49 1.06 -1.90 7.31 -2.61 11.30 -0.66 3.90 -2.35 10.81 -2.70 11.07 -0.27 0.22 -1.86 7.49 -2.83 13.07 -0.35 1.95 -1.15 5.45 -1.82 7.75 -0.62 2.30 -1.64 6.60 -2.26 9.52 -2.75 13.38 -3.32 15.99 -3.68 16.39 -0.18 0.27 -0.44 1.15 -0.58 1.99 -0.09 0.84 -0.62 3.54 -1.11 5.98 -0.49 2.44 -1.24 6.25 -1.64 8.42 -0.40 2.21 -0.93 4.65 -1.20 5.45 l-0.44 1.46 -3.59 -0.13 -3.59 -0.13 -1.64 -4.87 c-0.89 -2.66 -2.04 -5.85 -2.57 -7 -0.53 -1.20 -1.77 -4.65 -2.70 -7.75 -0.97 -3.10 -2.26 -6.69 -2.88 -7.93 -0.62 -1.28 -1.11 -2.48 -1.11 -2.66 0 -0.89 -2.92 -9.57 -4.03 -11.96 -0.66 -1.51 -1.46 -3.63 -1.73 -4.65 -1.06 -3.99 -2.04 -6.87 -3.63 -10.45 -0.84 -1.95 -1.59 -4.16 -2.57 -7.62 -0.62 -2.35 -1.46 -4.61 -2.92 -7.97 -0.53 -1.33 -1.24 -3.14 -1.46 -3.99 -1.37 -4.65 -2.83 -8.81 -3.54 -10.19 -0.49 -0.84 -1.37 -3.32 -1.99 -5.54 -1.73 -5.94 -3.01 -9.57 -3.85 -11.07 -0.40 -0.71 -1.51 -3.72 -2.39 -6.64 -0.93 -2.92 -1.82 -5.49 -1.99 -5.76 -0.18 -0.22 -1.55 -3.94 -3.01 -8.19 -1.46 -4.25 -3.37 -9.74 -4.21 -12.18 -0.84 -2.44 -1.86 -5.40 -2.21 -6.64 -0.35 -1.20 -1.37 -3.90 -2.21 -5.98 -0.84 -2.08 -2.04 -5.45 -2.70 -7.53 -0.66 -2.08 -1.51 -4.34 -1.82 -5.09 -1.02 -2.30 -2.52 -6.69 -3.99 -11.52 -0.44 -1.46 -1.24 -3.63 -1.77 -4.87 -1.33 -3.06 -1.73 -4.12 -3.59 -10.14 -0.89 -2.92 -1.95 -5.89 -2.35 -6.64 -0.44 -0.75 -1.15 -2.57 -1.55 -4.03 -1.24 -4.12 -1.51 -4.65 -2.26 -4.39 -0.40 0.18 -0.66 0.84 -0.66 1.77 0 0.84 -0.18 1.51 -0.44 1.51 -0.22 0 -0.40 0.44 -0.35 1.02 0.04 0.53 -0.27 2.26 -0.62 3.85 -0.40 1.59 -0.97 4.39 -1.24 6.20 -0.84 5.36 -1.33 7.88 -2.52 13.29 -1.33 6.16 -1.28 5.85 -1.59 6.64 -0.13 0.35 -0.75 3.77 -1.42 7.53 -1.15 7.13 -2.44 12.89 -2.92 13.29 -0.18 0.13 -0.31 0.75 -0.31 1.42 0 0.66 -0.18 1.77 -0.44 2.44 -0.27 0.71 -0.71 2.52 -0.97 4.12 -1.24 7.49 -1.90 10.76 -2.92 15.28 -0.66 2.70 -1.33 5.27 -1.51 5.76 -0.22 0.49 -0.66 2.39 -1.06 4.21 -1.77 8.95 -3.06 14.62 -3.77 17.05 -0.80 2.61 -1.64 6.20 -2.70 11.52 -0.89 4.30 -2.75 11.92 -3.10 12.40 -0.13 0.27 -0.66 2.04 -1.06 3.99 -1.55 7 -3.41 14.13 -4.03 15.46 -0.31 0.75 -1.24 3.99 -1.99 7.13 -1.42 5.76 -2.92 10.68 -3.54 11.52 -0.18 0.27 -0.84 2.26 -1.51 4.43 -0.66 2.21 -1.42 4.70 -1.68 5.54 -0.27 0.84 -1.06 2.79 -1.77 4.34 -0.71 1.51 -1.77 4.21 -2.44 5.98 -0.62 1.73 -1.64 4.16 -2.30 5.36 -0.62 1.24 -1.95 3.72 -2.92 5.58 -0.97 1.86 -2.97 4.96 -4.39 6.91 -3.50 4.65 -11.69 12.67 -15.06 14.66 -1.51 0.89 -3.14 1.95 -3.68 2.39 -1.77 1.33 -10.50 3.10 -14.79 3.01 -1.33 -0.04 -3.77 -0.27 -5.49 -0.44z"/>
 </g>
</svg>